PathFileType	4	(X/Y/Z)	OpenSim_Sub11_CSPreOp_Gyro.trc
DataRate	CameraRate	NumFrames	NumMarkers	Units	OrigDataRate	OrigDataStartFrame	OrigNumFrames
100	100	24	8	m	100	463	3701
Frame#	Time	torso_imu_offset_imu	pelvis_imu_offset_imu	tibia_r_imu_offset_imu	femur_r_imu_offset_imu	tibia_l_imu_offset_imu	femur_l_imu_offset_imu	toes_r_imu_offset_imu	toes_l_imu_offset_imu
				X1	Y1	Z1	X2	Y2	Z2	X3	Y3	Z3	X4	Y4	Z4	X5	Y5	Z5	X6	Y6	Z6	X7	Y7	Z7	X8		Y8	Z8	

463	4.62000000	0.19177200	-0.06813300	0.02207400	0.14193400	0.08540700	0.05124800	0.17748300	-0.25069800	-0.24153100	0.38194300	-0.12019700	-0.64751700	0.24754400	-0.64736300	1.67584600	-0.57207800	1.07399800	-1.98450900	0.11477000	-0.03105300	-0.04550500	-1.39644700	-4.28688400	1.64916700
464	4.63000000	0.15353800	-0.11158500	-0.02388600	0.14780200	0.07993600	0.07807700	0.25043000	-0.22637000	-0.21959200	0.36929000	-0.13659000	-0.66085600	0.65397700	-0.72951900	1.44158900	-0.56108300	1.19529800	-1.87388600	0.13126300	-0.01063100	-0.04271800	-0.50760300	-3.72112600	1.66959600
465	4.64000000	0.13772000	-0.13324500	-0.04870200	0.16031000	0.06820300	0.09314900	0.34157200	-0.18623700	-0.22297700	0.34899100	-0.13424000	-0.61673400	1.12917700	-0.74905400	1.18405300	-0.59346300	1.32369100	-1.69996100	0.06598500	0.00331200	-0.03272900	-1.53053800	-2.72815500	1.32024700
466	4.65000000	0.08744800	-0.15460800	-0.04487200	0.19786100	0.07697000	0.09693200	0.32702800	-0.19460600	-0.25985000	0.30348300	-0.12607700	-0.52289300	1.43687600	-0.79379500	0.90181100	-0.58065300	1.42301500	-1.51352300	0.05050200	-0.01142400	-0.02887000	1.27065200	-1.10130100	1.30530500
467	4.66000000	0.04159500	-0.17502400	-0.04292100	0.22656900	0.04992600	0.10196200	0.24516500	-0.22571100	-0.29201400	0.25891100	-0.10956300	-0.42328900	2.03050700	-0.78769400	0.54639100	-0.47500800	1.45859700	-1.32142900	0.06265600	-0.00252500	-0.01248000	3.17868300	0.53565500	1.45714400
468	4.67000000	0.03988300	-0.19474800	-0.03591600	0.23621900	0.04740800	0.09354400	0.28142100	-0.19595000	-0.34457700	0.24965300	-0.06603600	-0.32503300	2.63188000	-0.79720000	-0.03705900	-0.31741000	1.41777500	-1.19325700	0.00356500	-0.02435400	-0.00482100	4.11415200	1.73979700	1.62599500
469	4.68000000	-0.00384700	-0.22096300	-0.00880100	0.25628600	0.05242700	0.07227400	0.27464500	-0.16779100	-0.37552900	0.27862300	-0.03276700	-0.25398300	3.02758800	-0.76193700	-0.68357500	-0.12509500	1.32101000	-1.06284000	0.00146900	-0.01231900	0.00306800	3.07399400	1.22891200	1.75758400
470	4.69000000	-0.01335500	-0.24674700	0.01092200	0.27369600	0.06357300	0.01942100	0.23046700	-0.16413500	-0.37756400	0.33559100	-0.02725000	-0.22121700	3.01638300	-0.62439800	-1.24920100	0.01140800	1.19548200	-0.91065300	-0.00748400	-0.04587700	0.00530300	2.12295900	1.19231600	1.84185700
471	4.70000000	-0.03054800	-0.27292000	0.03777800	0.28797100	0.08188600	-0.03198800	0.25527500	-0.14211000	-0.39604400	0.39395300	-0.04281900	-0.20187000	2.79372300	-0.49991500	-1.61981600	0.20640800	1.03892400	-0.79809000	0.00914300	-0.04129600	0.00297700	2.26154100	1.68009100	1.69443900
472	4.71000000	-0.01345900	-0.27261300	0.05776000	0.32783900	0.12458600	-0.07329600	0.33624600	-0.11373700	-0.44517900	0.44167100	-0.06947900	-0.19444200	2.42938400	-0.44396000	-1.88016700	0.40343200	0.91090000	-0.71066200	-0.01697600	-0.04765100	0.00525800	2.68303300	2.28919200	1.38296900
473	4.72000000	-0.00452300	-0.26907000	0.07393800	0.33240000	0.16402000	-0.09711200	0.30259800	-0.10677000	-0.48037700	0.47303800	-0.07261300	-0.20155600	2.22613800	-0.41733900	-2.12457600	0.60107400	0.78515300	-0.64813000	0.00872300	-0.04049000	-0.00294500	2.81321000	2.63407700	1.08265700
474	4.73000000	0.07505600	-0.26833500	0.09382200	0.33570600	0.18694700	-0.10076300	0.22088500	-0.11474300	-0.46356300	0.46535300	-0.07474500	-0.21829600	2.24327000	-0.40237200	-2.43321100	0.78743700	0.66676400	-0.57963300	-0.00109400	-0.05515600	-0.00300600	2.62488200	2.82449300	0.81384700
475	4.74000000	0.17449500	-0.29237400	0.09460800	0.34346100	0.20373700	-0.10346200	0.19486600	-0.10308300	-0.42784600	0.43454000	-0.07715100	-0.24909400	2.38340300	-0.36981600	-2.77115300	0.89485600	0.57937500	-0.52409300	0.03573300	-0.04017900	-0.01546600	2.32177300	3.04234800	0.52402400
476	4.75000000	0.16984400	-0.30352100	0.07836900	0.34093000	0.21972200	-0.10053900	0.21463000	-0.06790900	-0.42760100	0.38804700	-0.09533200	-0.27820900	2.36367200	-0.33998100	-3.06070800	0.96040500	0.48769500	-0.44441900	0.01181500	-0.04212200	-0.01812500	2.19318400	3.18119800	0.18653700
477	4.76000000	0.16053900	-0.29696500	0.07849500	0.34617400	0.24022100	-0.10049100	0.15544500	-0.05437200	-0.42424500	0.32725800	-0.11163300	-0.29267500	2.01962000	-0.31063000	-3.22723300	0.95690500	0.41290900	-0.35095100	0.05060100	-0.04935500	-0.02971500	2.03667400	3.24249000	-0.13907500
478	4.77000000	0.15948200	-0.27497100	0.07416600	0.34587000	0.25388200	-0.09652800	0.07144000	-0.06431300	-0.41516100	0.23522800	-0.11180200	-0.29984000	1.70633100	-0.33337400	-3.29002200	0.87174300	0.36292200	-0.26755100	0.03093900	-0.04165200	-0.03570000	1.99460900	3.32152300	-0.34172800
479	4.78000000	0.19761500	-0.25058900	0.07220300	0.33986500	0.26243700	-0.08177200	0.02838500	-0.06349500	-0.40161800	0.11287500	-0.09884600	-0.30881200	1.44707900	-0.45839200	-3.43168700	0.73828500	0.31314500	-0.16410400	0.06018600	-0.03747500	-0.03853800	2.08628900	3.41602500	-0.43667900
480	4.79000000	0.21064100	-0.23422900	0.07713300	0.31325600	0.25852600	-0.07550200	-0.02639400	-0.06050300	-0.38066100	-0.00934800	-0.09137000	-0.32029200	1.04418400	-0.53821400	-3.60816400	0.58706700	0.23042000	-0.07590900	0.03080100	-0.01698600	-0.04381700	2.03707800	3.39243200	-0.54245000
481	4.80000000	0.20157800	-0.20471600	0.08506900	0.27690600	0.23787400	-0.06234500	-0.08930000	-0.05748700	-0.34088500	-0.12701400	-0.08584500	-0.34138500	0.55651200	-0.52826500	-3.68464800	0.43635600	0.14161300	0.01957400	0.05214000	-0.03185600	-0.05095400	1.87915600	3.28944100	-0.72085300
482	4.81000000	0.20675600	-0.20252600	0.10104200	0.24108700	0.22217600	-0.06327300	-0.09689800	-0.05064200	-0.30468800	-0.21199500	-0.07781000	-0.36183500	0.12407000	-0.52599300	-3.65091100	0.29012500	0.04821900	0.13776500	0.07057400	-0.02258900	-0.04953800	1.66609900	3.19551700	-1.00778300
483	4.82000000	0.23155300	-0.21484600	0.09367100	0.20214200	0.20263100	-0.06470200	-0.01474700	-0.01468100	-0.31531000	-0.27178700	-0.06858000	-0.37417000	-0.25413000	-0.53516300	-3.61000600	0.14258500	-0.04624100	0.27541900	0.04726300	-0.01795900	-0.05138300	1.34567800	3.10071300	-1.37721600
484	4.83000000	0.23007300	-0.23629100	0.07545500	0.16373600	0.17992700	-0.05894200	0.02980700	0.00764000	-0.33387900	-0.28772700	-0.05056100	-0.37814800	-0.51649100	-0.49341600	-3.57382800	-0.03192000	-0.12713100	0.42322900	0.05621000	-0.01044800	-0.04997700	0.97512900	3.01985700	-1.72971800
485	4.84000000	0.22760000	-0.22444500	0.08079400	0.12487000	0.15267200	-0.05402300	0.01083300	0.00200900	-0.30831100	-0.25833100	-0.02572600	-0.38930300	-0.72141600	-0.41131900	-3.57622600	-0.20981700	-0.17722600	0.56202400	0.05746500	-0.02334500	-0.04473800	0.65115900	2.92898700	-1.99417800
486	4.85000000	0.22900600	-0.19683500	0.08433000	0.09395300	0.12350100	-0.04726600	0.03949300	0.01940400	-0.29110900	-0.20407700	-0.00066900	-0.40212400	-0.90424000	-0.31742900	-3.58224400	-0.36397400	-0.21032500	0.69362600	0.06079700	-0.01400400	-0.04965700	0.40202100	2.82592800	-2.15535200
